HIERARCHY
ROOT Hips
{
	OFFSET -0.001795 -0.223333 0.028219
	CHANNELS 6 Xposition Yposition Zposition Zrotation Yrotation Xrotation 
	JOINT LeftUpLeg
	{
		OFFSET 0.069520 -0.091406 -0.006815
		CHANNELS 3 Zrotation Yrotation Xrotation
		JOINT LeftLeg
		{
			OFFSET 0.034277 -0.375199 -0.004496
			CHANNELS 3 Zrotation Yrotation Xrotation
			JOINT LeftFoot
			{
				OFFSET -0.013596 -0.397961 -0.043693
				CHANNELS 3 Zrotation Yrotation Xrotation
				JOINT LeftToe
				{
					OFFSET 0.026358 -0.055791 0.119288
					CHANNELS 3 Zrotation Yrotation Xrotation
					End Site
					{
						OFFSET 0.000000 0.000000 0.000000
					}
				}
			}
		}
	}
	JOINT RightUpLeg
	{
		OFFSET -0.067670 -0.090522 -0.004320
		CHANNELS 3 Zrotation Yrotation Xrotation
		JOINT RightLeg
		{
			OFFSET -0.038290 -0.382569 -0.008850
			CHANNELS 3 Zrotation Yrotation Xrotation
			JOINT RightFoot
			{
				OFFSET 0.015774 -0.398415 -0.042312
				CHANNELS 3 Zrotation Yrotation Xrotation
				JOINT RightToe
				{
					OFFSET -0.025372 -0.048144 0.123348
					CHANNELS 3 Zrotation Yrotation Xrotation
					End Site
					{
						OFFSET 0.000000 0.000000 0.000000
					}
				}
			}
		}
	}
	JOINT Spine
	{
		OFFSET -0.002533 0.108963 -0.026696
		CHANNELS 3 Zrotation Yrotation Xrotation
		JOINT Spine1
		{
			OFFSET 0.005487 0.135180 0.001092
			CHANNELS 3 Zrotation Yrotation Xrotation
			JOINT Spine2
			{
				OFFSET 0.001457 0.052922 0.025425
				CHANNELS 3 Zrotation Yrotation Xrotation
				JOINT Neck
				{
					OFFSET -0.002778 0.213870 -0.042857
					CHANNELS 3 Zrotation Yrotation Xrotation
					JOINT Head
					{
						OFFSET 0.005152 0.064970 0.051349
						CHANNELS 3 Zrotation Yrotation Xrotation
						End Site
						{
							OFFSET 0.000000 0.000000 0.000000
						}
					}
				}
				JOINT LeftShoulder
				{
					OFFSET 0.078845 0.121749 -0.034090
					CHANNELS 3 Zrotation Yrotation Xrotation
					JOINT LeftArm
					{
						OFFSET 0.090977 0.030469 -0.008868
						CHANNELS 3 Zrotation Yrotation Xrotation
						JOINT LeftForeArm
						{
							OFFSET 0.259612 -0.012772 -0.027456
							CHANNELS 3 Zrotation Yrotation Xrotation
							JOINT LeftHand
							{
								OFFSET 0.249234 0.008986 -0.001171
								CHANNELS 3 Zrotation Yrotation Xrotation
								End Site
								{
									OFFSET 0.000000 0.000000 0.000000
								}
							}
						}
					}
				}
				JOINT RightShoulder
				{
					OFFSET -0.081759 0.118833 -0.038615
					CHANNELS 3 Zrotation Yrotation Xrotation
					JOINT RightArm
					{
						OFFSET -0.096012 0.032551 -0.009143
						CHANNELS 3 Zrotation Yrotation Xrotation
						JOINT RightForeArm
						{
							OFFSET -0.253742 -0.013329 -0.021401
							CHANNELS 3 Zrotation Yrotation Xrotation
							JOINT RightHand
							{
								OFFSET -0.255298 0.007772 -0.005559
								CHANNELS 3 Zrotation Yrotation Xrotation
								End Site
								{
									OFFSET 0.000000 0.000000 0.000000
								}
							}
						}
					}
				}
			}
		}
	}
}
MOTION
Frames: 7
Frame Time: 0.050000
0.000000 0.951360 0.000000 -5.373434 -19.656014 12.866767 6.014015 -0.118497 -17.409663 1.138297 -0.096730 -1.510518 0.348792 2.653303 12.027253 0.000000 0.000000 0.000000 -2.686355 1.022287 -9.953663 5.227692 -0.233007 -1.901171 -8.717421 -22.371953 14.615516 0.000000 0.000000 0.000000 -9.171752 1.900563 17.323528 -4.138365 1.818389 -2.299689 -4.476328 1.775870 11.088892 -8.993839 5.716503 -19.263741 0.000000 0.000000 0.000000 -33.174607 -25.614955 19.248534 -42.035011 -33.790253 5.144102 2.687686 -31.560929 0.871537 0.000000 0.000000 0.000000 10.414133 29.825946 11.932444 39.609871 8.522192 -1.301019 -2.230346 54.283387 -0.229207 0.000000 0.000000 0.000000 
0.000248 0.950212 -0.000250 -5.060339 -20.564308 13.079867 6.863600 0.029555 -16.398739 -0.400980 0.136820 -2.993632 -0.805341 0.874404 13.228693 0.000000 0.000000 0.000000 -2.017919 1.100578 -10.703909 2.744167 -0.151850 -1.607069 -7.812150 -21.225144 15.103830 0.000000 0.000000 0.000000 -9.426075 2.060483 17.751792 -3.222379 1.293677 -4.409910 -5.965480 1.848503 13.401426 -9.553376 5.742801 -23.629649 0.000000 0.000000 0.000000 -32.814588 -25.394449 19.339375 -41.057152 -32.967621 4.370233 0.608023 -42.371349 2.284636 0.000000 0.000000 0.000000 6.143653 28.279411 10.553901 37.066960 11.375786 -0.747793 -1.723484 52.888577 -0.124832 0.000000 0.000000 0.000000 
0.000451 0.951281 -0.000422 -4.984978 -18.905253 13.216076 7.137863 0.029917 -17.364535 -0.309657 0.064795 -0.651389 -1.275277 -0.201289 10.750967 0.000000 0.000000 0.000000 -1.383581 1.105363 -10.775825 2.550869 -0.156443 -1.449228 -9.059796 -22.943432 15.125228 0.000000 0.000000 0.000000 -8.690642 1.836393 18.060373 -3.095495 1.282275 -3.805597 -6.185325 1.826539 11.369815 -8.319796 5.510812 -17.144657 0.000000 0.000000 0.000000 -34.373613 -27.034027 20.560351 -41.223707 -32.871008 4.624554 -1.918023 -43.251268 3.253808 0.000000 0.000000 0.000000 5.449719 28.775778 10.830142 36.575573 8.619157 -1.336373 -3.169719 50.567605 -0.635095 0.000000 0.000000 0.000000 
0.000455 0.951270 -0.000726 -4.951960 -19.088411 13.416994 7.857536 0.176134 -17.850979 -1.162433 0.185386 -0.959591 -2.828392 -2.822910 10.726477 0.000000 0.000000 0.000000 -1.834794 1.142306 -11.107863 3.155036 -0.180207 -1.896521 -10.312932 -24.747326 15.267737 0.000000 0.000000 0.000000 -8.578210 1.761434 17.475414 -2.999458 1.237943 -3.874491 -7.453436 1.849817 12.051115 -8.133481 5.376058 -17.975586 0.000000 0.000000 0.000000 -33.781922 -27.671467 20.755816 -43.082581 -34.256829 5.578955 -1.878496 -44.173741 3.340713 0.000000 0.000000 0.000000 3.834236 29.231754 10.789105 34.165251 8.612856 -1.340911 -3.940715 48.218547 -0.943086 0.000000 0.000000 0.000000 
0.000298 0.951834 -0.000763 -4.879982 -19.799536 13.097301 7.644494 0.173614 -17.772559 -0.807750 0.120708 0.245141 -2.563491 -2.663615 9.873624 0.000000 0.000000 0.000000 -1.900487 1.162282 -11.281698 3.285244 -0.176388 -1.676561 -10.111043 -24.498036 15.318771 0.000000 0.000000 0.000000 -8.284708 1.748353 17.882241 -3.865281 1.620909 -3.503624 -7.409537 1.730011 11.510180 -7.996898 5.278381 -17.427695 0.000000 0.000000 0.000000 -32.812888 -28.525722 21.186077 -44.089857 -35.592786 6.417631 1.004805 -45.333931 2.281192 0.000000 0.000000 0.000000 3.403284 29.238464 10.671146 31.899217 9.748275 -0.989430 -4.015598 45.756301 -0.942744 0.000000 0.000000 0.000000 
0.000038 0.951857 -0.000627 -4.395320 -19.655418 13.230971 7.607908 0.160554 -18.134897 -1.732413 0.254801 0.528298 -2.553592 -2.857039 8.973077 0.000000 0.000000 0.000000 -2.697404 1.180348 -11.474659 3.942305 -0.199404 -1.541446 -10.519038 -25.058231 15.138711 0.000000 0.000000 0.000000 -8.196018 1.712306 17.702536 -4.185959 1.744185 -3.734490 -7.542050 1.369320 11.722049 -8.463506 5.572844 -16.945400 0.000000 0.000000 0.000000 -32.756139 -29.216918 21.784472 -43.649164 -36.457594 6.654232 0.760975 -46.154742 2.429214 0.000000 0.000000 0.000000 2.203782 29.834614 10.704101 30.628259 9.321296 -1.071138 -4.185758 45.067054 -1.044955 0.000000 0.000000 0.000000 
-0.000260 0.951865 -0.000269 -4.052108 -19.405363 13.092098 7.249670 0.074063 -17.948230 -1.591882 0.234193 0.213147 -2.616368 -2.801632 9.519537 0.000000 0.000000 0.000000 -2.558219 1.205688 -11.727975 3.376488 -0.184690 -1.706408 -10.632140 -25.243856 15.441447 0.000000 0.000000 0.000000 -8.094890 1.721082 18.157231 -4.415509 1.901564 -2.876158 -7.522531 0.495278 10.807580 -8.814393 5.737521 -16.551104 0.000000 0.000000 0.000000 -32.772330 -29.429045 22.172555 -43.644764 -37.635362 7.157233 0.310246 -45.488963 2.572498 0.000000 0.000000 0.000000 1.604166 30.084583 10.654828 29.607429 9.241669 -0.998197 -3.140695 44.925036 -0.699465 0.000000 0.000000 0.000000 
